<svg width="1360" height="760" viewBox="0 0 680 380" xmlns="http://www.w3.org/2000/svg">
<rect x="0" y="0" width="680" height="380" fill="#0f1729"/>

<g transform="translate(40, 50)">
<rect x="0" y="0" width="260" height="240" rx="32" fill="#1a2744" stroke="#3b82f6" stroke-width="2" opacity="0.95"/>
<text x="130" y="70" font-family="monospace" font-size="18" fill="#10b981" text-anchor="middle" opacity="0.9">&gt; I can be</text>
<text x="130" y="98" font-family="monospace" font-size="18" fill="#10b981" text-anchor="middle" opacity="0.9">&gt; ALL apps</text>
<text x="130" y="136" font-family="monospace" font-size="15" fill="#f59e0b" text-anchor="middle" opacity="0.7">&gt; come here</text>
<text x="130" y="158" font-family="monospace" font-size="15" fill="#f59e0b" text-anchor="middle" opacity="0.7">&gt; little ones...</text>
<rect x="40" y="176" width="8" height="22" fill="#3b82f6" opacity="0.8"/>
<circle cx="80" cy="210" r="10" fill="#3b82f6" opacity="0.5"/>
<circle cx="110" cy="210" r="10" fill="#3b82f6" opacity="0.35"/>
<circle cx="140" cy="210" r="10" fill="#3b82f6" opacity="0.2"/>
</g>

<g transform="translate(400, 46)">
<rect x="0" y="0" width="80" height="80" rx="18" fill="#ef4444"/>
<circle cx="28" cy="32" r="8" fill="#fff"/>
<circle cx="52" cy="32" r="8" fill="#fff"/>
<circle cx="28" cy="32" r="4" fill="#ef4444"/>
<circle cx="24" cy="32" r="4" fill="#ef4444"/>
<circle cx="52" cy="32" r="4" fill="#ef4444"/>
<circle cx="48" cy="32" r="4" fill="#ef4444"/>
<ellipse cx="40" cy="56" rx="14" ry="7" fill="none" stroke="#fff" stroke-width="2.5"/>
<line x1="20" y1="-4" x2="14" y2="-14" stroke="#ef4444" stroke-width="2.5" stroke-linecap="round"/>
<line x1="40" y1="-6" x2="40" y2="-16" stroke="#ef4444" stroke-width="2.5" stroke-linecap="round"/>
<line x1="60" y1="-4" x2="66" y2="-14" stroke="#ef4444" stroke-width="2.5" stroke-linecap="round"/>
</g>

<g transform="translate(520, 90)">
<rect x="0" y="0" width="72" height="72" rx="16" fill="#8b5cf6" transform="rotate(15, 36, 36)"/>
<g transform="rotate(15, 36, 36)">
<line x1="16" y1="22" x2="26" y2="32" stroke="#fff" stroke-width="3" stroke-linecap="round"/>
<line x1="26" y1="22" x2="16" y2="32" stroke="#fff" stroke-width="3" stroke-linecap="round"/>
<line x1="46" y1="22" x2="56" y2="32" stroke="#fff" stroke-width="3" stroke-linecap="round"/>
<line x1="56" y1="22" x2="46" y2="32" stroke="#fff" stroke-width="3" stroke-linecap="round"/>
<path d="M18 48 Q36 38 54 48" fill="none" stroke="#fff" stroke-width="2.5" stroke-linecap="round"/>
</g>
</g>

<g transform="translate(580, 200)">
<rect x="0" y="0" width="56" height="56" rx="14" fill="#f59e0b" opacity="0.7" transform="rotate(-10, 28, 28)"/>
<g transform="rotate(-10, 28, 28)">
<circle cx="16" cy="22" r="4" fill="#fff"/>
<circle cx="40" cy="22" r="4" fill="#fff"/>
<path d="M14 36 Q28 30 42 36" fill="none" stroke="#fff" stroke-width="2" stroke-linecap="round"/>
</g>
</g>

<g transform="translate(450, 210)">
<rect x="0" y="0" width="48" height="48" rx="12" fill="#10b981" opacity="0.5" transform="rotate(8, 24, 24)"/>
<g transform="rotate(8, 24, 24)">
<circle cx="15" cy="18" r="3" fill="#fff" opacity="0.8"/>
<circle cx="33" cy="18" r="3" fill="#fff" opacity="0.8"/>
<path d="M13 30 Q24 25 35 30" fill="none" stroke="#fff" stroke-width="1.8" stroke-linecap="round" opacity="0.8"/>
</g>
</g>

<line x1="315" y1="140" x2="390" y2="86" stroke="#94a3b8" stroke-width="1" opacity="0.15" stroke-dasharray="4 4"/>
<line x1="315" y1="170" x2="510" y2="126" stroke="#94a3b8" stroke-width="1" opacity="0.12" stroke-dasharray="4 4"/>
<line x1="315" y1="200" x2="445" y2="220" stroke="#94a3b8" stroke-width="1" opacity="0.1" stroke-dasharray="4 4"/>

<text x="340" y="326" font-family="system-ui, sans-serif" font-size="20" fill="#e2e8f0" font-weight="500" text-anchor="middle" letter-spacing="0.3">you don't need an app for that</text>
<text x="340" y="348" font-family="system-ui, sans-serif" font-size="12" fill="#94a3b8" font-weight="400" text-anchor="middle">...or why write software at all?</text>
</svg>
